<?xml version="1.0" encoding="UTF-8"?>
<!DOCTYPE svg PUBLIC "-//W3C//DTD SVG 1.1//EN" "http://www.w3.org/Graphics/SVG/1.1/DTD/svg11.dtd">
<!-- Creator: CorelDRAW X7 -->
<svg xmlns="http://www.w3.org/2000/svg" xml:space="preserve" width="3.89255in" height="0.935945in" version="1.1" style="shape-rendering:geometricPrecision; text-rendering:geometricPrecision; image-rendering:optimizeQuality; fill-rule:evenodd; clip-rule:evenodd"
viewBox="0 0 3893 936"
 xmlns:xlink="http://www.w3.org/1999/xlink"
 xmlns:xodm="http://www.corel.com/coreldraw/odm/2003">
 <defs>
  <style type="text/css">
   <![CDATA[
    .fil2 {fill:#656565}
    .fil0 {fill:#D90700}
    .fil1 {fill:#FEFEFE}
   ]]>
  </style>
 </defs>
 <g id="Layer_x0020_1">
  <metadata id="CorelCorpID_0Corel-Layer"/>
  <g id="_2547605901328">
   <g id="_2948899426224">
    <g>
     <path class="fil0" d="M486 289l0 -13c0,-3 0,-5 1,-7l0 -6 2 -2 0 -5 1 -1 0 -4 1 -1 0 -3 1 -2c1,-14 17,-39 26,-49 37,-46 104,-63 161,-37 55,24 87,83 78,144 -3,25 -11,36 -19,54l-2 1 -1 2 -1 1 -1 1 -1 3 -1 1 -2 1 -1 2 -1 2 -1 1 -1 1 -1 1 -2 1 -5 6 -2 1 -1 1 -1 2 -1 1 -1 1 -2 1 -1 1 -1 0 -1 1 -1 2 -1 1 -3 1 -1 1 -2 1 -1 1 -3 2 -1 1 -2 1 -3 1 -2 1 -2 1 -3 2 -2 1 -2 1 -3 1c-1,1 2,1 -3,1 -1,1 2,1 -4,1 -1,2 2,2 -3,2 -1,1 2,1 -4,1 0,0 0,0 0,0 0,1 -1,1 -1,1l-8 1 -2 1c-1,0 -1,0 -1,0 -1,1 -4,1 -4,1 -24,4 -40,2 -63,-4 -14,-4 -43,-20 -50,-31 -4,-1 -7,-4 -9,-8l-1 -1c-3,-2 -5,-3 -6,-7 -3,-2 -2,-1 -3,-5 -3,-1 -2,0 -2,-3 -3,-2 -2,0 -3,-4 -2,-1 -1,0 -2,-3l-1 -2 -1 -3c-3,-2 -4,-2 -4,-7l-1 -2 -1 -2c-1,-2 -1,2 -1,-4l-2 -2c-1,-2 -1,2 -1,-4 -1,-1 -1,2 -1,-3l0 -2c-1,-1 -1,3 -1,-3 0,0 -1,-1 -1,-1 0,0 0,0 0,-1 0,-1 0,-1 0,-3l0 -1c-1,-1 -1,2 -1,-3l0 -3c-1,0 -1,-1 -1,0 0,0 0,-1 0,-1 -1,-2 -1,-2 -1,-3l0 -4c-1,-2 -1,-6 -1,-9l0 0zm-486 170c0,67 7,105 26,164 3,8 5,15 8,22 3,7 6,14 9,20 3,6 6,13 10,19 1,3 3,6 4,9 24,39 24,40 54,77l14 16c3,3 3,4 6,7 3,3 5,5 8,8 11,12 42,37 54,46 4,2 6,4 9,6l45 27c28,14 35,19 71,31 7,3 13,5 22,7 49,14 77,15 127,18 5,0 19,-1 26,-1 34,0 89,-12 122,-23 17,-6 45,-17 61,-25 25,-13 68,-39 88,-57 19,-17 27,-22 45,-42 2,-3 4,-5 7,-7l26 -33c2,-3 4,-5 6,-8 31,-42 62,-107 74,-159 11,-49 13,-70 13,-123 0,-86 -34,-192 -86,-261 -8,-10 -24,-32 -32,-39l-21 -23c-34,-34 -91,-75 -138,-94 -6,-3 -13,-6 -19,-9 -49,-20 -118,-32 -171,-32 -81,0 -151,20 -219,55 -5,2 -6,3 -10,5 -23,12 -48,31 -69,47l-23 20c-24,23 -41,44 -61,70l-22 35c-39,66 -64,150 -64,227l0 0z"/>
     <path class="fil1" d="M492 245l-1 2 0 3 -1 1 0 4 -1 1 0 5 -2 2 0 6 0 6c0,0 -1,1 -1,1l0 13 1 3c1,2 0,4 0,6l0 4c1,0 1,0 1,0 0,1 0,1 0,1 1,2 1,2 1,3l0 3c1,1 1,-2 1,3l0 1c0,0 0,1 0,1 0,0 1,1 1,1 0,1 0,1 0,3 1,1 1,-2 1,3l0 2c1,1 1,-2 1,3 1,1 1,-2 1,4l2 2c1,1 1,-2 1,3l1 3 1 2c1,1 1,0 2,3 1,2 1,2 2,4l1 3 1 2c2,2 2,0 2,3 3,2 2,1 3,4 2,2 1,0 2,3 3,2 2,1 4,5 2,2 4,3 5,7l2 1 8 8c4,2 2,1 5,4 23,21 66,35 97,31 5,0 12,-2 18,-2 0,0 1,-1 1,0l3 -2c3,0 2,0 5,0 2,-1 -2,-1 4,-1 1,-2 -2,-2 3,-2 2,-1 -2,-1 4,-1 1,-1 -2,-1 3,-1l3 -1 2 -1 2 -1 3 -2 2 -1 3 -1 2 -1 2 -1 1 -1 3 -2 1 -1 2 -1 1 -1 3 -1 1 -1 1 -2 1 -1 1 0 2 -1 1 -1 1 -1 1 -1 1 -2 1 -1 2 -1 5 -6 2 -1 1 -1 1 -1 1 -1 1 -2 1 -2 2 -1 1 -1 1 -3 1 -1 1 -1 1 -2 2 -2c8,-17 16,-28 20,-53 8,-61 -24,-120 -78,-144 -58,-26 -125,-9 -162,37 -8,10 -25,35 -26,49l0 0z"/>
    </g>
    <g>
     <path class="fil2" d="M1839 582l-6 0c0,-26 4,-46 13,-64 6,-11 17,-23 29,-28 40,-15 68,29 68,51 0,37 -75,41 -104,41l0 0zm-130 43l78 0c0,7 4,19 6,24 6,12 16,28 26,36 9,7 11,9 22,16 2,1 3,2 5,3l21 9c25,10 60,17 88,20 10,1 19,2 29,3l104 1c7,0 9,-1 15,-1l45 -1c6,0 9,-1 15,-1l0 -50c0,-5 -8,-3 -11,-2l-43 1c-5,0 -7,1 -13,1 -5,0 -10,-1 -14,0 -17,1 -48,0 -66,0 -47,0 -109,-5 -148,-26 -10,-6 -26,-20 -27,-32 22,0 58,-4 79,-9 16,-4 38,-12 51,-23 14,-12 25,-27 25,-50 0,-20 -1,-33 -10,-52 -15,-36 -50,-63 -89,-63l-6 0c-40,0 -73,27 -89,54 -2,4 -3,7 -5,11 -11,22 -16,55 -16,80 -14,0 -26,1 -40,1l-53 0c-36,0 -30,-22 -32,-43l-2 -49c0,-15 0,-64 -1,-74 -1,-3 -1,-22 0,-24 0,-3 7,-13 9,-16 18,-24 47,-40 74,-53 6,-2 13,-5 19,-7 -1,-3 -3,-9 -5,-12l-10 -25c-1,-4 -3,-9 -5,-12 -12,2 -44,19 -55,25l-28 19c0,-18 -1,-35 -1,-53l0 -135c0,-10 -1,-16 -1,-26l-53 0c0,54 0,106 0,160 0,54 2,107 2,161 0,7 1,11 1,19 0,7 0,14 0,20 0,8 1,13 1,20 0,7 0,14 0,20 0,4 1,5 1,9l1 30c-1,33 2,71 35,87 18,8 45,9 71,9l0 0z"/>
     <path class="fil2" d="M2669 581c-15,0 -31,-2 -40,-15 -5,-8 -4,-14 -4,-23 0,-23 16,-43 29,-57l16 -13c29,-22 36,-24 62,-39 3,-2 6,-3 9,-6 0,9 2,15 2,22 1,22 5,46 5,69 0,23 -15,42 -36,52 -11,6 -28,10 -43,10l0 0zm65 -224c0,4 2,11 2,15 -2,0 -5,2 -7,3 -2,2 -4,3 -7,4 -33,21 -50,29 -84,55 -36,28 -67,67 -67,117 0,8 1,15 3,21l-41 -2c-15,-2 -20,-8 -21,-23 0,-16 1,-54 0,-66 -1,-7 0,-14 -1,-21 -3,-25 1,-47 -16,-72 -28,-41 -84,-37 -118,-7 -3,2 -4,3 -7,5 0,-5 -1,-11 -1,-17 1,-18 14,-14 -52,-14l0 107c0,27 2,51 2,78 0,24 -6,31 -30,31l-39 0 -1 54c30,0 70,1 94,-17 20,-15 27,-35 27,-69 0,-16 0,-31 0,-47 0,-38 -6,-42 12,-60 18,-17 67,-40 73,-4 3,15 2,28 4,39 2,13 -1,46 0,62 0,4 1,5 1,9 0,25 3,57 22,73 19,16 60,14 90,14 4,0 2,-1 2,-10l1 -37c7,17 13,29 31,40 41,27 102,21 141,-6 10,-6 16,-13 19,-15 2,2 3,4 5,6 2,2 3,4 5,6 19,18 50,16 75,16 4,0 7,0 10,0 3,-1 7,1 7,-3l0 -46c0,-7 -17,0 -39,-4 -29,-5 -24,-15 -28,-48 -1,-5 -1,-11 -2,-16l-10 -124c-1,-11 -3,-23 -3,-35 -7,0 -45,8 -52,8l0 0z"/>
     <path class="fil2" d="M1221 581c-69,0 -51,-70 -1,-107 24,-17 28,-19 53,-34 4,-2 16,-10 19,-11 1,4 1,10 2,13l4 41c0,21 5,35 -2,54 -8,23 -27,34 -49,41 -7,2 -17,3 -26,3l0 0zm225 -484l1 153c0,18 1,33 1,51 0,35 1,67 1,101 0,9 1,15 1,25 0,9 0,17 0,26 0,5 0,7 0,12 0,4 0,8 0,12l1 51c1,7 2,17 1,24 -3,16 -12,20 -31,21 -16,1 -55,3 -63,-12 -2,-4 -3,-18 -4,-23 -2,-20 -8,-72 -8,-94l-9 -95 -50 8c0,6 0,9 0,15l-66 39c-18,13 -43,31 -58,48l-14 17c-17,25 -25,45 -25,80 0,12 4,26 8,34 33,61 132,54 177,15l9 -8c3,3 4,7 10,12 6,4 7,5 14,8 18,10 40,8 61,8 7,0 10,-1 16,-1l0 -3c14,-1 31,-11 40,-23 1,-2 2,-3 4,-5 2,7 11,16 17,20 8,5 17,8 28,10 20,3 48,2 72,2 0,-2 -1,-3 -1,-6l0 -44 -51 0c-27,0 -20,-16 -22,-40 0,-5 -1,-8 -1,-14 0,-6 0,-11 0,-16 -1,-9 1,-21 -1,-31l-2 -122c0,-42 -1,-82 -1,-124 0,-21 -1,-40 -1,-61l0 -71c-16,0 -38,1 -54,1l0 0z"/>
     <path class="fil2" d="M3094 612c11,-6 17,-18 19,-19 7,14 13,20 28,26 21,8 62,6 87,6 0,-4 -1,-6 -1,-11l0 -39c-12,0 -53,1 -62,-2 -11,-4 -9,-21 -9,-36l-4 -114c0,-20 -1,-38 -1,-59 -8,2 -18,1 -26,1l-27 1 1 67c0,4 0,4 0,9 0,6 0,14 1,20 1,10 1,46 1,57 0,30 9,50 -24,53 -34,4 -72,3 -107,3 -29,0 -31,-17 -31,-44 0,-6 -1,-7 -1,-12 0,-4 0,-9 0,-13 0,-16 -1,-31 -1,-49 0,-9 -1,-15 -1,-24 0,-9 0,-17 0,-26 0,-16 -6,-19 10,-38 10,-13 8,-10 18,-20 2,-2 5,-4 7,-5 10,-7 21,-14 31,-19l26 -12c3,-1 6,-3 10,-4 0,-6 -18,-44 -19,-49 -22,5 -60,26 -79,41 -2,2 -3,3 -5,3l-1 -214 -54 0c0,54 1,106 1,160 0,15 0,26 0,40 0,14 0,27 0,41 0,14 1,25 1,39 0,12 -1,29 1,40 1,12 -1,28 0,41 0,3 1,4 1,9l1 50c0,9 2,47 3,57 4,21 20,36 42,46 24,10 54,9 83,9 34,0 67,-2 81,-10l0 0z"/>
     <path class="fil2" d="M3570 582l-7 0c0,-24 3,-48 14,-66 5,-8 9,-14 16,-19 46,-35 93,31 75,58 -15,23 -71,27 -98,27l0 0zm-59 -8l-37 -1c0,11 -1,19 -1,30 0,27 -5,21 6,21 14,0 24,1 37,1 0,13 10,35 18,46 50,66 168,67 244,67 10,0 20,0 29,-1 4,0 9,0 14,0 6,0 9,-1 14,-1 5,0 10,0 14,0 6,0 9,-1 15,-1 5,0 9,0 14,0 6,0 8,-1 15,-1l0 -53 -55 2c-5,0 -6,1 -12,1l-42 0c-64,0 -120,2 -176,-21 -5,-2 -7,-4 -10,-6 -17,-9 -21,-17 -28,-31 9,0 19,-1 28,-1 41,-4 82,-11 111,-40 24,-23 19,-63 8,-91 -5,-12 -12,-23 -20,-32 -7,-8 -19,-18 -29,-23 -46,-23 -101,-7 -130,35 -17,26 -27,57 -27,100l0 0z"/>
     <path class="fil2" d="M3196 374c1,3 3,16 4,20l14 58c13,46 30,98 58,135 13,17 35,37 59,37 35,0 60,-20 79,-46 4,-4 7,-9 10,-15 13,-23 20,-42 27,-69 7,-24 20,-99 20,-125l-52 0c-2,30 -8,76 -16,104 -1,5 -2,9 -4,14 -5,18 -13,34 -20,49 -6,10 -22,34 -36,34 -13,0 -17,-4 -27,-15 -4,-4 -8,-11 -11,-16 -2,-3 -2,-4 -3,-6 -5,-8 -14,-30 -17,-39 -10,-29 -14,-42 -21,-72 -3,-10 -5,-20 -7,-30 -2,-10 -4,-21 -7,-31 -3,0 -9,2 -13,3l-25 7c-4,1 -9,2 -12,3l0 0z"/>
     <path class="fil2" d="M2190 392c-21,0 -37,-3 -54,-13 -19,-10 -22,-13 -22,-33 -7,0 -45,12 -53,14l2 34c1,3 1,6 1,9 0,3 1,4 1,9 0,4 0,5 0,8l8 121c-1,6 -1,16 -6,22 -8,8 -34,8 -46,8 -7,0 -12,1 -18,1l1 53c21,0 41,1 62,-2 68,-10 61,-66 60,-113 0,-5 -1,-7 -1,-13 0,-5 -1,-7 0,-13l-2 -25c0,-9 -2,-17 -2,-25l25 7c33,8 81,3 107,-19 20,-16 23,-23 33,-47 1,-3 2,-6 2,-9l-36 -17c-3,-2 -8,-5 -12,-6 -4,10 -6,23 -16,33 -5,5 -9,9 -14,11 -5,2 -13,5 -20,5l0 0z"/>
    </g>
    <g>
     <path class="fil0" d="M2738 826c0,19 14,16 23,16l0 -146c9,6 18,28 24,38 7,14 13,27 20,41 10,20 28,67 56,67l10 0 0 -162c0,-4 -5,-10 -10,-10l-12 0 0 143c-4,-5 -9,-13 -11,-19 -3,-7 -47,-96 -51,-102 -15,-21 -25,-23 -49,-23l0 157 0 0z"/>
     <path class="fil0" d="M3061 830c0,6 6,12 11,12l12 0 0 -147c3,2 8,9 10,13 6,10 8,14 13,25 12,23 30,63 42,82 4,8 5,8 9,13 2,2 2,3 4,5 13,10 18,9 32,9l0 -158c0,-16 -12,-14 -23,-14l0 142c-4,-3 -17,-31 -21,-39l-30 -62c-10,-20 -21,-42 -49,-42l-10 0 0 161 0 0z"/>
     <path class="fil0" d="M2964 692l2 0c0,3 3,6 4,9 10,19 19,44 26,65 1,3 2,9 3,11l-68 0c0,-4 5,-18 7,-23 4,-12 14,-41 21,-52 2,-3 4,-6 5,-10l0 0zm-69 140c0,12 12,10 20,10 0,-5 6,-27 7,-34 1,-4 2,-8 3,-11l80 0 4 15c7,28 3,30 29,30 -4,-18 -6,-29 -11,-49 -9,-30 -16,-52 -28,-79 -5,-13 -18,-44 -33,-44 -11,0 -11,-2 -21,16 -9,17 -10,21 -18,37 -3,7 -5,14 -8,21 -7,18 -24,70 -24,88l0 0z"/>
     <path class="fil0" d="M3379 734c0,32 -5,71 16,93 18,19 42,17 67,17 9,0 18,-1 24,-4 9,-4 9,-13 9,-22 -5,0 -9,2 -14,2 -13,3 -23,2 -37,2 -19,0 -33,-6 -39,-23 -3,-11 -3,-24 -3,-36l63 0c5,0 11,-5 11,-10l0 -10 -74 0c0,-20 2,-35 6,-52l73 0c17,0 15,-11 15,-21l-92 0c-13,0 -17,15 -20,25 -2,10 -5,26 -5,39l0 0z"/>
     <path class="fil0" d="M3304 845l1 0c14,0 27,-1 39,-10 4,-3 7,-7 9,-11 3,-5 3,-10 3,-18 -7,1 -9,17 -45,17 -9,0 -19,-3 -25,-6 -8,-4 -12,-7 -18,-13 -8,-9 -17,-28 -17,-45 0,-21 1,-37 17,-52 19,-19 49,-23 71,-12 5,3 10,6 13,10 2,2 1,3 4,4 0,-12 1,-15 -3,-23 -7,-11 -22,-18 -35,-19l-12 0c-11,0 -23,4 -32,8 -57,27 -64,119 -10,156 9,7 25,14 40,14l0 0z"/>
     <path class="fil0" d="M2549 687l0 143c0,14 15,12 23,12l0 -80 51 0c16,0 17,-9 17,-19 0,-2 -1,-3 -3,-3l-65 0 0 -48 63 0c17,0 16,-12 16,-22l-84 0c-5,0 -10,2 -13,4 -2,3 -5,8 -5,13l0 0z"/>
     <path class="fil0" d="M2673 826c0,18 14,16 24,16l0 -162c0,-5 -6,-10 -10,-10l-14 0 0 156 0 0z"/>
    </g>
   </g>
  </g>
 </g>
</svg>
